<svg width="96" height="25" viewBox="0 0 96 25" fill="none" xmlns="http://www.w3.org/2000/svg">
<g clip-path="url(#clip0_127_181)">
<circle cx="12.9999" cy="13.3999" r="7.99992" fill="#FF8800"/>
<g filter="url(#filter0_d_127_181)">
<circle cx="12.9998" cy="13.3999" r="5.39994" fill="white"/>
</g>
<rect x="19" y="13.7999" width="3.99996" height="2.39998" rx="1.19999" fill="#FF8800"/>
<rect x="3" y="13.7999" width="3.99996" height="2.39998" rx="1.19999" fill="#FF8800"/>
<path d="M9.39146 2.87712C10.1414 2.50586 10.9715 2.33908 11.777 2.39788C12.5824 2.45667 13.327 2.73839 13.9165 3.20742C14.506 3.67646 14.914 4.31173 15.0889 5.0329C15.2638 5.75408 15.1977 6.52877 14.899 7.25901L11.0472 6.2215L9.39146 2.87712Z" fill="#FF8800"/>
<rect x="9.19995" y="11.1999" width="7.59992" height="2.79997" rx="1.39999" fill="#FF8800"/>
<g filter="url(#filter1_d_127_181)">
<rect x="9.80005" y="11.5999" width="1.79998" height="1.79998" rx="0.899991" fill="white"/>
</g>
<g filter="url(#filter2_d_127_181)">
<rect x="14.4001" y="11.5999" width="1.79998" height="1.79998" rx="0.899991" fill="white"/>
</g>
</g>
<path d="M36.18 18V5.4H38.61V18H36.18ZM28.242 18V5.4H30.672V18H28.242ZM30.33 12.546V10.584H36.594V12.546H30.33ZM45.3936 18.216C44.4816 18.216 43.6716 18.024 42.9636 17.64C42.2676 17.244 41.7216 16.698 41.3256 16.002C40.9416 15.294 40.7496 14.478 40.7496 13.554C40.7496 12.606 40.9416 11.772 41.3256 11.052C41.7216 10.32 42.2676 9.75 42.9636 9.342C43.6596 8.922 44.4696 8.712 45.3936 8.712C46.2936 8.712 47.0796 8.91 47.7516 9.306C48.4236 9.702 48.9456 10.236 49.3176 10.908C49.6896 11.58 49.8756 12.342 49.8756 13.194C49.8756 13.314 49.8756 13.452 49.8756 13.608C49.8756 13.752 49.8636 13.902 49.8396 14.058H42.4776V12.582H47.4276C47.3916 11.994 47.1816 11.532 46.7976 11.196C46.4256 10.86 45.9576 10.692 45.3936 10.692C44.9856 10.692 44.6076 10.788 44.2596 10.98C43.9116 11.16 43.6356 11.442 43.4316 11.826C43.2396 12.21 43.1436 12.696 43.1436 13.284V13.806C43.1436 14.298 43.2336 14.73 43.4136 15.102C43.6056 15.462 43.8696 15.744 44.2056 15.948C44.5416 16.14 44.9316 16.236 45.3756 16.236C45.8196 16.236 46.1856 16.14 46.4736 15.948C46.7736 15.756 46.9956 15.51 47.1396 15.21H49.6236C49.4556 15.774 49.1736 16.284 48.7776 16.74C48.3816 17.196 47.8956 17.556 47.3196 17.82C46.7436 18.084 46.1016 18.216 45.3936 18.216ZM51.8657 18V5.04H54.2957V18H51.8657ZM56.6646 18V5.04H59.0946V18H56.6646ZM61.5174 18V8.928H63.9474V18H61.5174ZM62.7414 7.686C62.3094 7.686 61.9494 7.56 61.6614 7.308C61.3854 7.044 61.2474 6.714 61.2474 6.318C61.2474 5.922 61.3854 5.598 61.6614 5.346C61.9494 5.082 62.3094 4.95 62.7414 4.95C63.1854 4.95 63.5454 5.082 63.8214 5.346C64.1094 5.598 64.2534 5.922 64.2534 6.318C64.2534 6.714 64.1094 7.044 63.8214 7.308C63.5454 7.56 63.1854 7.686 62.7414 7.686ZM69.7868 18.216C69.0548 18.216 68.4248 18.066 67.8968 17.766C67.3808 17.454 66.9848 17.004 66.7088 16.416C66.4328 15.816 66.2948 15.078 66.2948 14.202V8.928H68.7248V13.95C68.7248 14.682 68.8748 15.234 69.1748 15.606C69.4868 15.978 69.9608 16.164 70.5968 16.164C71.0048 16.164 71.3648 16.074 71.6768 15.894C71.9888 15.702 72.2348 15.432 72.4148 15.084C72.6068 14.724 72.7028 14.286 72.7028 13.77V8.928H75.1148V18H72.9908L72.7928 16.524C72.5288 17.04 72.1388 17.454 71.6228 17.766C71.1068 18.066 70.4948 18.216 69.7868 18.216ZM77.4946 18V8.928H79.6366L79.8346 10.134C80.1226 9.702 80.5006 9.36 80.9686 9.108C81.4486 8.844 81.9946 8.712 82.6066 8.712C83.0626 8.712 83.4706 8.772 83.8306 8.892C84.1906 9.012 84.5086 9.186 84.7846 9.414C85.0726 9.642 85.3066 9.93 85.4866 10.278C85.8226 9.786 86.2606 9.402 86.8006 9.126C87.3406 8.85 87.9286 8.712 88.5646 8.712C89.3566 8.712 90.0166 8.874 90.5446 9.198C91.0726 9.51 91.4686 9.966 91.7326 10.566C92.0086 11.166 92.1466 11.904 92.1466 12.78V18H89.7346V12.996C89.7346 12.276 89.5906 11.724 89.3026 11.34C89.0266 10.956 88.5946 10.764 88.0066 10.764C87.6226 10.764 87.2806 10.86 86.9806 11.052C86.6806 11.244 86.4466 11.52 86.2786 11.88C86.1226 12.24 86.0446 12.672 86.0446 13.176V18H83.6146V12.996C83.6146 12.276 83.4706 11.724 83.1826 11.34C82.8946 10.956 82.4506 10.764 81.8506 10.764C81.4786 10.764 81.1426 10.86 80.8426 11.052C80.5546 11.244 80.3266 11.52 80.1586 11.88C80.0026 12.24 79.9246 12.672 79.9246 13.176V18H77.4946Z" fill="#E87C00"/>
<defs>
<filter id="filter0_d_127_181" x="3.59985" y="7.99992" width="18.7998" height="18.7999" filterUnits="userSpaceOnUse" color-interpolation-filters="sRGB">
<feFlood flood-opacity="0" result="BackgroundImageFix"/>
<feColorMatrix in="SourceAlpha" type="matrix" values="0 0 0 0 0 0 0 0 0 0 0 0 0 0 0 0 0 0 127 0" result="hardAlpha"/>
<feOffset dy="4"/>
<feGaussianBlur stdDeviation="2"/>
<feComposite in2="hardAlpha" operator="out"/>
<feColorMatrix type="matrix" values="0 0 0 0 0 0 0 0 0 0 0 0 0 0 0 0 0 0 0.4 0"/>
<feBlend mode="normal" in2="BackgroundImageFix" result="effect1_dropShadow_127_181"/>
<feBlend mode="normal" in="SourceGraphic" in2="effect1_dropShadow_127_181" result="shape"/>
</filter>
<filter id="filter1_d_127_181" x="6.80005" y="10.5999" width="7.80005" height="7.79999" filterUnits="userSpaceOnUse" color-interpolation-filters="sRGB">
<feFlood flood-opacity="0" result="BackgroundImageFix"/>
<feColorMatrix in="SourceAlpha" type="matrix" values="0 0 0 0 0 0 0 0 0 0 0 0 0 0 0 0 0 0 127 0" result="hardAlpha"/>
<feOffset dy="2"/>
<feGaussianBlur stdDeviation="1.5"/>
<feComposite in2="hardAlpha" operator="out"/>
<feColorMatrix type="matrix" values="0 0 0 0 0 0 0 0 0 0 0 0 0 0 0 0 0 0 0.29 0"/>
<feBlend mode="normal" in2="BackgroundImageFix" result="effect1_dropShadow_127_181"/>
<feBlend mode="normal" in="SourceGraphic" in2="effect1_dropShadow_127_181" result="shape"/>
</filter>
<filter id="filter2_d_127_181" x="11.4001" y="10.5999" width="7.80005" height="7.79999" filterUnits="userSpaceOnUse" color-interpolation-filters="sRGB">
<feFlood flood-opacity="0" result="BackgroundImageFix"/>
<feColorMatrix in="SourceAlpha" type="matrix" values="0 0 0 0 0 0 0 0 0 0 0 0 0 0 0 0 0 0 127 0" result="hardAlpha"/>
<feOffset dy="2"/>
<feGaussianBlur stdDeviation="1.5"/>
<feComposite in2="hardAlpha" operator="out"/>
<feColorMatrix type="matrix" values="0 0 0 0 0 0 0 0 0 0 0 0 0 0 0 0 0 0 0.29 0"/>
<feBlend mode="normal" in2="BackgroundImageFix" result="effect1_dropShadow_127_181"/>
<feBlend mode="normal" in="SourceGraphic" in2="effect1_dropShadow_127_181" result="shape"/>
</filter>
<clipPath id="clip0_127_181">
<rect width="25" height="25" fill="white"/>
</clipPath>
</defs>
</svg>
