<svg width="471" height="72" viewBox="0 0 471 72" fill="none" xmlns="http://www.w3.org/2000/svg">
<path d="M48.96 70V2.8H61.92V70H48.96ZM6.624 70V2.8H19.584V70H6.624ZM17.76 40.912V30.448H51.168V40.912H17.76ZM98.0993 71.152C93.2353 71.152 88.9153 70.128 85.1393 68.08C81.4273 65.968 78.5153 63.056 76.4033 59.344C74.3553 55.568 73.3313 51.216 73.3313 46.288C73.3313 41.232 74.3553 36.784 76.4033 32.944C78.5153 29.04 81.4273 26 85.1393 23.824C88.8513 21.584 93.1713 20.464 98.0993 20.464C102.899 20.464 107.091 21.52 110.675 23.632C114.259 25.744 117.043 28.592 119.027 32.176C121.011 35.76 122.003 39.824 122.003 44.368C122.003 45.008 122.003 45.744 122.003 46.576C122.003 47.344 121.939 48.144 121.811 48.976H82.5473V41.104H108.947C108.755 37.968 107.635 35.504 105.587 33.712C103.603 31.92 101.107 31.024 98.0993 31.024C95.9233 31.024 93.9073 31.536 92.0513 32.56C90.1953 33.52 88.7233 35.024 87.6353 37.072C86.6113 39.12 86.0993 41.712 86.0993 44.848V47.632C86.0993 50.256 86.5793 52.56 87.5393 54.544C88.5633 56.464 89.9713 57.968 91.7633 59.056C93.5553 60.08 95.6353 60.592 98.0033 60.592C100.371 60.592 102.323 60.08 103.859 59.056C105.459 58.032 106.643 56.72 107.411 55.12H120.659C119.763 58.128 118.259 60.848 116.147 63.28C114.035 65.712 111.443 67.632 108.371 69.04C105.299 70.448 101.875 71.152 98.0993 71.152ZM132.617 70V0.879997H145.577V70H132.617ZM158.211 70V0.879997H171.171V70H158.211ZM184.093 70V21.616H197.053V70H184.093ZM190.621 14.992C188.317 14.992 186.397 14.32 184.861 12.976C183.389 11.568 182.653 9.80799 182.653 7.696C182.653 5.584 183.389 3.856 184.861 2.512C186.397 1.104 188.317 0.399998 190.621 0.399998C192.989 0.399998 194.909 1.104 196.381 2.512C197.917 3.856 198.685 5.584 198.685 7.696C198.685 9.80799 197.917 11.568 196.381 12.976C194.909 14.32 192.989 14.992 190.621 14.992ZM228.197 71.152C224.293 71.152 220.933 70.352 218.117 68.752C215.365 67.088 213.253 64.688 211.781 61.552C210.309 58.352 209.573 54.416 209.573 49.744V21.616H222.533V48.4C222.533 52.304 223.333 55.248 224.933 57.232C226.597 59.216 229.125 60.208 232.517 60.208C234.693 60.208 236.613 59.728 238.277 58.768C239.941 57.744 241.253 56.304 242.213 54.448C243.237 52.528 243.749 50.192 243.749 47.44V21.616H256.613V70H245.285L244.229 62.128C242.821 64.88 240.741 67.088 237.989 68.752C235.237 70.352 231.973 71.152 228.197 71.152ZM269.305 70V21.616H280.729L281.785 28.048C283.321 25.744 285.337 23.92 287.833 22.576C290.393 21.168 293.305 20.464 296.569 20.464C299.001 20.464 301.177 20.784 303.097 21.424C305.017 22.064 306.713 22.992 308.185 24.208C309.721 25.424 310.969 26.96 311.929 28.816C313.721 26.192 316.057 24.144 318.937 22.672C321.817 21.2 324.953 20.464 328.345 20.464C332.569 20.464 336.089 21.328 338.905 23.056C341.721 24.72 343.833 27.152 345.241 30.352C346.713 33.552 347.449 37.488 347.449 42.16V70H334.585V43.312C334.585 39.472 333.817 36.528 332.281 34.48C330.809 32.432 328.505 31.408 325.369 31.408C323.321 31.408 321.497 31.92 319.897 32.944C318.297 33.968 317.049 35.44 316.153 37.36C315.321 39.28 314.905 41.584 314.905 44.272V70H301.945V43.312C301.945 39.472 301.177 36.528 299.641 34.48C298.105 32.432 295.737 31.408 292.537 31.408C290.553 31.408 288.761 31.92 287.161 32.944C285.625 33.968 284.409 35.44 283.513 37.36C282.681 39.28 282.265 41.584 282.265 44.272V70H269.305ZM378.05 70L402.626 2.8H417.314L441.794 70H428.066L409.922 17.584L391.682 70H378.05ZM388.898 54.736L392.354 44.656H426.53L429.89 54.736H388.898ZM450.624 70V2.8H463.584V70H450.624Z" fill="url(#paint0_radial_58_181)"/>
<defs>
<radialGradient id="paint0_radial_58_181" cx="0" cy="0" r="1" gradientUnits="userSpaceOnUse" gradientTransform="translate(347 84) rotate(-163.194) scale(461.721 103.978)">
<stop offset="0.0609998" stop-color="white"/>
<stop offset="0.791594" stop-color="#FF9D2D"/>
<stop offset="1" stop-color="#FF8800"/>
</radialGradient>
</defs>
</svg>
